{
    "asset" : {
        "generator" : "Khronos glTF Blender I/O v1.2.75",
        "version" : "2.0"
    },
    "scene" : 0,
    "scenes" : [
        {
            "name" : "Scene",
            "nodes" : [
                0
            ]
        }
    ],
    "nodes" : [
        {
            "mesh" : 0,
            "name" : "Aztec Pyramid"
        }
    ],
    "materials" : [
        {
            "doubleSided" : true,
            "name" : "Material.001",
            "pbrMetallicRoughness" : {}
        }
    ],
    "meshes" : [
        {
            "name" : "Cube.010",
            "primitives" : [
                {
                    "attributes" : {
                        "POSITION" : 0,
                        "NORMAL" : 1,
                        "TEXCOORD_0" : 2
                    },
                    "indices" : 3,
                    "material" : 0
                }
            ]
        }
    ],
    "accessors" : [
        {
            "bufferView" : 0,
            "componentType" : 5126,
            "count" : 7802,
            "max" : [
                27.649999618530273,
                29.923778533935547,
                27.64999771118164
            ],
            "min" : [
                -27.649999618530273,
                -0.07621964067220688,
                -27.65000343322754
            ],
            "type" : "VEC3"
        },
        {
            "bufferView" : 1,
            "componentType" : 5126,
            "count" : 7802,
            "type" : "VEC3"
        },
        {
            "bufferView" : 2,
            "componentType" : 5126,
            "count" : 7802,
            "type" : "VEC2"
        },
        {
            "bufferView" : 3,
            "componentType" : 5123,
            "count" : 12198,
            "type" : "SCALAR"
        }
    ],
    "bufferViews" : [
        {
            "buffer" : 0,
            "byteLength" : 93624,
            "byteOffset" : 0
        },
        {
            "buffer" : 0,
            "byteLength" : 93624,
            "byteOffset" : 93624
        },
        {
            "buffer" : 0,
            "byteLength" : 62416,
            "byteOffset" : 187248
        },
        {
            "buffer" : 0,
            "byteLength" : 24396,
            "byteOffset" : 249664
        }
    ],
    "buffers" : [
        {
            "byteLength" : 274060,
            "uri" : "data:application/octet-stream;base64,"
        }
    ]
}
