{
    "asset" : {
        "generator" : "Khronos glTF Blender I/O v1.2.75",
        "version" : "2.0"
    },
    "scene" : 0,
    "scenes" : [
        {
            "name" : "Scene",
            "nodes" : [
                0,
                1,
                2,
                3
            ]
        }
    ],
    "nodes" : [
        {
            "name" : "Light",
            "rotation" : [
                0.16907575726509094,
                0.7558803558349609,
                -0.27217137813568115,
                0.570947527885437
            ],
            "translation" : [
                12.352758407592773,
                34.52330017089844,
                12.407898902893066
            ]
        },
        {
            "name" : "Camera",
            "rotation" : [
                0.483536034822464,
                0.33687159419059753,
                -0.20870360732078552,
                0.7804827094078064
            ],
            "translation" : [
                7.358891487121582,
                4.958309173583984,
                6.925790786743164
            ]
        },
        {
            "mesh" : 0,
            "name" : "Aztec Pyramid",
            "scale" : [
                24.873844146728516,
                19.296310424804688,
                24.873844146728516
            ]
        },
        {
            "name" : "Empty",
            "rotation" : [
                0.6373751759529114,
                0.30619099736213684,
                -0.30619099736213684,
                0.6373751163482666
            ],
            "scale" : [
                20.91089630126953,
                20.91089630126953,
                20.91089630126953
            ],
            "translation" : [
                -23.341764450073242,
                22.13105010986328,
                -14.911322593688965
            ]
        }
    ],
    "materials" : [
        {
            "doubleSided" : true,
            "name" : "Aztec Pyramid Material",
            "pbrMetallicRoughness" : {}
        }
    ],
    "meshes" : [
        {
            "name" : "Cube.010",
            "primitives" : [
                {
                    "attributes" : {
                        "POSITION" : 0,
                        "NORMAL" : 1,
                        "TEXCOORD_0" : 2
                    },
                    "indices" : 3,
                    "material" : 0
                }
            ]
        }
    ],
    "accessors" : [
        {
            "bufferView" : 0,
            "componentType" : 5126,
            "count" : 4738,
            "max" : [
                1.2470624446868896,
                1.449161171913147,
                1.2470624446868896
            ],
            "min" : [
                -1.2470624446868896,
                -0.0036911964416503906,
                -1.2470626831054688
            ],
            "type" : "VEC3"
        },
        {
            "bufferView" : 1,
            "componentType" : 5126,
            "count" : 4738,
            "type" : "VEC3"
        },
        {
            "bufferView" : 2,
            "componentType" : 5126,
            "count" : 4738,
            "type" : "VEC2"
        },
        {
            "bufferView" : 3,
            "componentType" : 5123,
            "count" : 12246,
            "type" : "SCALAR"
        }
    ],
    "bufferViews" : [
        {
            "buffer" : 0,
            "byteLength" : 56856,
            "byteOffset" : 0
        },
        {
            "buffer" : 0,
            "byteLength" : 56856,
            "byteOffset" : 56856
        },
        {
            "buffer" : 0,
            "byteLength" : 37904,
            "byteOffset" : 113712
        },
        {
            "buffer" : 0,
            "byteLength" : 24492,
            "byteOffset" : 151616
        }
    ],
    "buffers" : [
        {
            "byteLength" : 176108,
            "uri" : "data:application/octet-stream;base64,"
        }
    ]
}
