{
    "asset" : {
        "generator" : "Khronos glTF Blender I/O v1.6.16",
        "version" : "2.0"
    },
    "scene" : 0,
    "scenes" : [
        {
            "name" : "Scene",
            "nodes" : [
                0
            ]
        }
    ],
    "nodes" : [
        {
            "mesh" : 0,
            "name" : "Aztec Pyramid"
        }
    ],
    "materials" : [
        {
            "doubleSided" : true,
            "name" : "Aztec Pyramid Material",
            "pbrMetallicRoughness" : {
                "baseColorFactor" : [
                    0.5542995929718018,
                    0.5107389688491821,
                    0.39233162999153137,
                    1
                ],
                "metallicFactor" : 0.1984127014875412,
                "roughnessFactor" : 0.8730158805847168
            }
        }
    ],
    "meshes" : [
        {
            "name" : "Cube.010",
            "primitives" : [
                {
                    "attributes" : {
                        "POSITION" : 0,
                        "NORMAL" : 1,
                        "TEXCOORD_0" : 2
                    },
                    "indices" : 3,
                    "material" : 0
                }
            ]
        }
    ],
    "accessors" : [
        {
            "bufferView" : 0,
            "componentType" : 5126,
            "count" : 9135,
            "max" : [
                31.019237518310547,
                27.963464736938477,
                31.019237518310547
            ],
            "min" : [
                -31.019237518310547,
                -0.07123152166604996,
                -31.019243240356445
            ],
            "type" : "VEC3"
        },
        {
            "bufferView" : 1,
            "componentType" : 5126,
            "count" : 9135,
            "type" : "VEC3"
        },
        {
            "bufferView" : 2,
            "componentType" : 5126,
            "count" : 9135,
            "type" : "VEC2"
        },
        {
            "bufferView" : 3,
            "componentType" : 5123,
            "count" : 25326,
            "type" : "SCALAR"
        }
    ],
    "bufferViews" : [
        {
            "buffer" : 0,
            "byteLength" : 109620,
            "byteOffset" : 0
        },
        {
            "buffer" : 0,
            "byteLength" : 109620,
            "byteOffset" : 109620
        },
        {
            "buffer" : 0,
            "byteLength" : 73080,
            "byteOffset" : 219240
        },
        {
            "buffer" : 0,
            "byteLength" : 50652,
            "byteOffset" : 292320
        }
    ],
    "buffers" : [
        {
            "byteLength" : 342972,
            "uri" : "data:application/octet-stream;base64,"
        }
    ]
}
