{
    "asset" : {
        "generator" : "Khronos glTF Blender I/O v1.2.75",
        "version" : "2.0"
    },
    "scene" : 0,
    "scenes" : [
        {
            "name" : "Scene",
            "nodes" : [
                0
            ]
        }
    ],
    "nodes" : [
        {
            "mesh" : 0,
            "name" : "Aztec Pyramid",
            "scale" : [
                24,
                19,
                24
            ]
        }
    ],
    "materials" : [
        {
            "doubleSided" : true,
            "name" : "Aztec Pyramid Material",
            "pbrMetallicRoughness" : {}
        }
    ],
    "meshes" : [
        {
            "name" : "Cube.010",
            "primitives" : [
                {
                    "attributes" : {
                        "POSITION" : 0,
                        "NORMAL" : 1,
                        "TEXCOORD_0" : 2
                    },
                    "indices" : 3,
                    "material" : 0
                }
            ]
        }
    ],
    "accessors" : [
        {
            "bufferView" : 0,
            "componentType" : 5126,
            "count" : 4782,
            "max" : [
                1.2470624446868896,
                1.449161171913147,
                1.2470624446868896
            ],
            "min" : [
                -1.2470624446868896,
                -0.0036911964416503906,
                -1.2470626831054688
            ],
            "type" : "VEC3"
        },
        {
            "bufferView" : 1,
            "componentType" : 5126,
            "count" : 4782,
            "type" : "VEC3"
        },
        {
            "bufferView" : 2,
            "componentType" : 5126,
            "count" : 4782,
            "type" : "VEC2"
        },
        {
            "bufferView" : 3,
            "componentType" : 5123,
            "count" : 12246,
            "type" : "SCALAR"
        }
    ],
    "bufferViews" : [
        {
            "buffer" : 0,
            "byteLength" : 57384,
            "byteOffset" : 0
        },
        {
            "buffer" : 0,
            "byteLength" : 57384,
            "byteOffset" : 57384
        },
        {
            "buffer" : 0,
            "byteLength" : 38256,
            "byteOffset" : 114768
        },
        {
            "buffer" : 0,
            "byteLength" : 24492,
            "byteOffset" : 153024
        }
    ],
    "buffers" : [
        {
            "byteLength" : 177516,
            "uri" : "data:application/octet-stream;base64,"
        }
    ]
}
