{
    "asset" : {
        "generator" : "Khronos glTF Blender I/O v1.4.40",
        "version" : "2.0"
    },
    "scene" : 0,
    "scenes" : [
        {
            "extras" : {
                "home_builder" : {
                    "material_pointers" : [
                        {
                            "name" : "Cabinet Unfinished Surfaces",
                            "category" : "_Sample",
                            "item_name" : "Particle Board"
                        },
                        {
                            "name" : "Cabinet Unfinished Edges",
                            "category" : "_Sample",
                            "item_name" : "Particle Board"
                        },
                        {
                            "name" : "Cabinet Exposed Surfaces",
                            "category" : "_Sample",
                            "item_name" : "Dark Wood"
                        },
                        {
                            "name" : "Cabinet Exposed Edges",
                            "category" : "_Sample",
                            "item_name" : "Dark Wood"
                        },
                        {
                            "name" : "Cabinet Interior Surfaces",
                            "category" : "_Sample",
                            "item_name" : "Dark Wood"
                        },
                        {
                            "name" : "Cabinet Interior Edges",
                            "category" : "_Sample",
                            "item_name" : "Dark Wood"
                        },
                        {
                            "name" : "Cabinet Door Surfaces",
                            "category" : "_Sample",
                            "item_name" : "Dark Wood"
                        },
                        {
                            "name" : "Cabinet Door Edges",
                            "category" : "_Sample",
                            "item_name" : "Dark Wood"
                        },
                        {
                            "name" : "Cabinet Pull Finish",
                            "category" : "_Sample",
                            "item_name" : "Polished Chrome"
                        },
                        {
                            "name" : "Countertop Surface",
                            "category" : "_Sample",
                            "item_name" : "Midnight Granite"
                        },
                        {
                            "name" : "Glass",
                            "category" : "_Sample",
                            "item_name" : "Glass"
                        },
                        {
                            "name" : "Shelf Holes",
                            "category" : "_Sample",
                            "item_name" : "Machining"
                        },
                        {
                            "name" : "Walls",
                            "category" : "_Sample",
                            "item_name" : "Wall Paint"
                        },
                        {
                            "name" : "Lumber",
                            "category" : "_Sample",
                            "item_name" : "Plywood"
                        },
                        {
                            "name" : "Bricks",
                            "category" : "_Sample",
                            "item_name" : "Red Brick"
                        },
                        {
                            "name" : "Morter",
                            "category" : "_Sample",
                            "item_name" : "Concrete"
                        },
                        {
                            "name" : "Floor",
                            "category" : "_Sample",
                            "item_name" : "Provincial Oak Hardwood"
                        },
                        {
                            "name" : "Entry Door Frame",
                            "category" : "_Sample",
                            "item_name" : "Painted Wood White"
                        },
                        {
                            "name" : "Entry Door Panels",
                            "category" : "_Sample",
                            "item_name" : "Painted Wood White"
                        },
                        {
                            "name" : "Entry Door Handle",
                            "category" : "_Sample",
                            "item_name" : "Polished Chrome"
                        },
                        {
                            "name" : "Window Metal Frame",
                            "category" : "_Sample",
                            "item_name" : "Polished Chrome"
                        }
                    ],
                    "pull_pointers" : [
                        {
                            "name" : "Base Cabinet Pulls",
                            "category" : "_Sample",
                            "item_name" : "Pull 8in (203mm) Bar"
                        },
                        {
                            "name" : "Tall Cabinet Pulls",
                            "category" : "_Sample",
                            "item_name" : "Pull 8in (203mm) Bar"
                        },
                        {
                            "name" : "Upper Cabinet Pulls",
                            "category" : "_Sample",
                            "item_name" : "Pull 8in (203mm) Bar"
                        },
                        {
                            "name" : "Drawer Pulls",
                            "category" : "_Sample",
                            "item_name" : "Pull 8in (203mm) Bar"
                        }
                    ],
                    "cabinet_door_pointers" : [
                        {
                            "name" : "Base Cabinet Doors",
                            "category" : "_Sample",
                            "item_name" : "Slab"
                        },
                        {
                            "name" : "Tall Cabinet Doors",
                            "category" : "_Sample",
                            "item_name" : "Slab"
                        },
                        {
                            "name" : "Upper Cabinet Doors",
                            "category" : "_Sample",
                            "item_name" : "Slab"
                        },
                        {
                            "name" : "Drawer Fronts",
                            "category" : "_Sample",
                            "item_name" : "Slab"
                        }
                    ]
                }
            },
            "name" : "Scene",
            "nodes" : [
                0
            ]
        }
    ],
    "nodes" : [
        {
            "mesh" : 0,
            "name" : "Plane",
            "scale" : [
                10,
                10,
                10
            ]
        }
    ],
    "meshes" : [
        {
            "name" : "Plane",
            "primitives" : [
                {
                    "attributes" : {
                        "POSITION" : 0,
                        "NORMAL" : 1,
                        "TEXCOORD_0" : 2
                    },
                    "indices" : 3
                }
            ]
        }
    ],
    "accessors" : [
        {
            "bufferView" : 0,
            "componentType" : 5126,
            "count" : 1956,
            "max" : [
                1.0000001192092896,
                0.018801230937242508,
                1.0000001192092896
            ],
            "min" : [
                -1.0000001192092896,
                -0.028217339888215065,
                -1.0000001192092896
            ],
            "type" : "VEC3"
        },
        {
            "bufferView" : 1,
            "componentType" : 5126,
            "count" : 1956,
            "type" : "VEC3"
        },
        {
            "bufferView" : 2,
            "componentType" : 5126,
            "count" : 1956,
            "type" : "VEC2"
        },
        {
            "bufferView" : 3,
            "componentType" : 5123,
            "count" : 6144,
            "type" : "SCALAR"
        }
    ],
    "bufferViews" : [
        {
            "buffer" : 0,
            "byteLength" : 23472,
            "byteOffset" : 0
        },
        {
            "buffer" : 0,
            "byteLength" : 23472,
            "byteOffset" : 23472
        },
        {
            "buffer" : 0,
            "byteLength" : 15648,
            "byteOffset" : 46944
        },
        {
            "buffer" : 0,
            "byteLength" : 12288,
            "byteOffset" : 62592
        }
    ],
    "buffers" : [
        {
            "byteLength" : 74880,
            "uri" : "data:application/octet-stream;base64,"
        }
    ]
}
