{
    "asset" : {
        "generator" : "Khronos glTF Blender I/O v1.4.40",
        "version" : "2.0"
    },
    "scene" : 0,
    "scenes" : [
        {
            "name" : "Scene",
            "nodes" : [
                0
            ]
        }
    ],
    "nodes" : [
        {
            "mesh" : 0,
            "name" : "Plane",
            "scale" : [
                10,
                10,
                10
            ]
        }
    ],
    "meshes" : [
        {
            "name" : "Plane",
            "primitives" : [
                {
                    "attributes" : {
                        "POSITION" : 0,
                        "NORMAL" : 1,
                        "TEXCOORD_0" : 2
                    },
                    "indices" : 3
                }
            ]
        }
    ],
    "accessors" : [
        {
            "bufferView" : 0,
            "componentType" : 5126,
            "count" : 2547,
            "max" : [
                1.0000001192092896,
                0.018801230937242508,
                1.0000001192092896
            ],
            "min" : [
                -1.0000001192092896,
                -0.028217339888215065,
                -1.0000001192092896
            ],
            "type" : "VEC3"
        },
        {
            "bufferView" : 1,
            "componentType" : 5126,
            "count" : 2547,
            "type" : "VEC3"
        },
        {
            "bufferView" : 2,
            "componentType" : 5126,
            "count" : 2547,
            "type" : "VEC2"
        },
        {
            "bufferView" : 3,
            "componentType" : 5123,
            "count" : 6144,
            "type" : "SCALAR"
        }
    ],
    "bufferViews" : [
        {
            "buffer" : 0,
            "byteLength" : 30564,
            "byteOffset" : 0
        },
        {
            "buffer" : 0,
            "byteLength" : 30564,
            "byteOffset" : 30564
        },
        {
            "buffer" : 0,
            "byteLength" : 20376,
            "byteOffset" : 61128
        },
        {
            "buffer" : 0,
            "byteLength" : 12288,
            "byteOffset" : 81504
        }
    ],
    "buffers" : [
        {
            "byteLength" : 93792,
            "uri" : "data:application/octet-stream;base64,"
        }
    ]
}
