{
    "asset" : {
        "generator" : "Khronos glTF Blender I/O v1.4.40",
        "version" : "2.0"
    },
    "scene" : 0,
    "scenes" : [
        {
            "name" : "Scene",
            "nodes" : [
                0,
                1,
                2,
                3,
                4,
                5,
                6
            ]
        }
    ],
    "nodes" : [
        {
            "name" : "Light",
            "rotation" : [
                0.16907575726509094,
                0.7558803558349609,
                -0.27217137813568115,
                0.570947527885437
            ],
            "translation" : [
                4.076245307922363,
                5.903861999511719,
                -1.0054539442062378
            ]
        },
        {
            "name" : "Camera",
            "rotation" : [
                0.680848240852356,
                0.1983567178249359,
                -0.2366192638874054,
                0.6641623377799988
            ],
            "translation" : [
                -1.2258453369140625,
                0.4519160985946655,
                -1.8586595058441162
            ]
        },
        {
            "mesh" : 0,
            "name" : "Plane",
            "scale" : [
                20,
                10,
                20
            ]
        },
        {
            "mesh" : 1,
            "name" : "Plane.001",
            "scale" : [
                20,
                1,
                8
            ],
            "translation" : [
                0,
                0,
                -27.302879333496094
            ]
        },
        {
            "mesh" : 2,
            "name" : "Plane.002",
            "scale" : [
                8,
                1,
                20
            ],
            "translation" : [
                -26.994359970092773,
                0,
                0
            ]
        },
        {
            "mesh" : 3,
            "name" : "Plane.003",
            "scale" : [
                8,
                1,
                20
            ],
            "translation" : [
                27.547321319580078,
                0,
                0
            ]
        },
        {
            "mesh" : 4,
            "name" : "Plane.004",
            "rotation" : [
                0,
                0.7071068286895752,
                0,
                0.7071068286895752
            ],
            "scale" : [
                8,
                1,
                20
            ],
            "translation" : [
                0,
                0,
                27.65908432006836
            ]
        }
    ],
    "materials" : [
        {
            "doubleSided" : true,
            "name" : "Ground",
            "pbrMetallicRoughness" : {
                "baseColorFactor" : [
                    0.5944783091545105,
                    0.8000000715255737,
                    0.13404272496700287,
                    1
                ],
                "metallicFactor" : 0,
                "roughnessFactor" : 0.573913037776947
            }
        }
    ],
    "meshes" : [
        {
            "name" : "Plane",
            "primitives" : [
                {
                    "attributes" : {
                        "POSITION" : 0,
                        "NORMAL" : 1,
                        "TEXCOORD_0" : 2
                    },
                    "indices" : 3,
                    "material" : 0
                }
            ]
        },
        {
            "name" : "Plane.002",
            "primitives" : [
                {
                    "attributes" : {
                        "POSITION" : 4,
                        "NORMAL" : 5,
                        "TEXCOORD_0" : 6
                    },
                    "indices" : 7,
                    "material" : 0
                }
            ]
        },
        {
            "name" : "Plane.003",
            "primitives" : [
                {
                    "attributes" : {
                        "POSITION" : 8,
                        "NORMAL" : 9,
                        "TEXCOORD_0" : 10
                    },
                    "indices" : 11,
                    "material" : 0
                }
            ]
        },
        {
            "name" : "Plane.004",
            "primitives" : [
                {
                    "attributes" : {
                        "POSITION" : 12,
                        "NORMAL" : 13,
                        "TEXCOORD_0" : 14
                    },
                    "indices" : 15,
                    "material" : 0
                }
            ]
        },
        {
            "name" : "Plane.005",
            "primitives" : [
                {
                    "attributes" : {
                        "POSITION" : 16,
                        "NORMAL" : 17,
                        "TEXCOORD_0" : 18
                    },
                    "indices" : 19,
                    "material" : 0
                }
            ]
        }
    ],
    "accessors" : [
        {
            "bufferView" : 0,
            "componentType" : 5126,
            "count" : 5585,
            "max" : [
                1.0000001192092896,
                0.12587687373161316,
                1.0000568628311157
            ],
            "min" : [
                -1.0012898445129395,
                -0.028217339888215065,
                -1.0000001192092896
            ],
            "type" : "VEC3"
        },
        {
            "bufferView" : 1,
            "componentType" : 5126,
            "count" : 5585,
            "type" : "VEC3"
        },
        {
            "bufferView" : 2,
            "componentType" : 5126,
            "count" : 5585,
            "type" : "VEC2"
        },
        {
            "bufferView" : 3,
            "componentType" : 5123,
            "count" : 6144,
            "type" : "SCALAR"
        },
        {
            "bufferView" : 4,
            "componentType" : 5126,
            "count" : 6144,
            "max" : [
                1.0000001192092896,
                0.829517126083374,
                1.0000001192092896
            ],
            "min" : [
                -1.0000001192092896,
                -0.4705375134944916,
                -1.0000001192092896
            ],
            "type" : "VEC3"
        },
        {
            "bufferView" : 5,
            "componentType" : 5126,
            "count" : 6144,
            "type" : "VEC3"
        },
        {
            "bufferView" : 6,
            "componentType" : 5126,
            "count" : 6144,
            "type" : "VEC2"
        },
        {
            "bufferView" : 7,
            "componentType" : 5123,
            "count" : 6144,
            "type" : "SCALAR"
        },
        {
            "bufferView" : 8,
            "componentType" : 5126,
            "count" : 4529,
            "max" : [
                1.0000001192092896,
                1.7907216548919678,
                1.0063518285751343
            ],
            "min" : [
                -1.0000001192092896,
                0,
                -1.0187844038009644
            ],
            "type" : "VEC3"
        },
        {
            "bufferView" : 9,
            "componentType" : 5126,
            "count" : 4529,
            "type" : "VEC3"
        },
        {
            "bufferView" : 10,
            "componentType" : 5126,
            "count" : 4529,
            "type" : "VEC2"
        },
        {
            "bufferView" : 11,
            "componentType" : 5123,
            "count" : 6144,
            "type" : "SCALAR"
        },
        {
            "bufferView" : 12,
            "componentType" : 5126,
            "count" : 5167,
            "max" : [
                1.0118483304977417,
                0.579442024230957,
                1.0000001192092896
            ],
            "min" : [
                -1.0000001192092896,
                0,
                -1.0000001192092896
            ],
            "type" : "VEC3"
        },
        {
            "bufferView" : 13,
            "componentType" : 5126,
            "count" : 5167,
            "type" : "VEC3"
        },
        {
            "bufferView" : 14,
            "componentType" : 5126,
            "count" : 5167,
            "type" : "VEC2"
        },
        {
            "bufferView" : 15,
            "componentType" : 5123,
            "count" : 6144,
            "type" : "SCALAR"
        },
        {
            "bufferView" : 16,
            "componentType" : 5126,
            "count" : 5063,
            "max" : [
                1.0000001192092896,
                2.2085046768188477,
                1.0097841024398804
            ],
            "min" : [
                -1.0000001192092896,
                0,
                -1.001214861869812
            ],
            "type" : "VEC3"
        },
        {
            "bufferView" : 17,
            "componentType" : 5126,
            "count" : 5063,
            "type" : "VEC3"
        },
        {
            "bufferView" : 18,
            "componentType" : 5126,
            "count" : 5063,
            "type" : "VEC2"
        },
        {
            "bufferView" : 19,
            "componentType" : 5123,
            "count" : 6144,
            "type" : "SCALAR"
        }
    ],
    "bufferViews" : [
        {
            "buffer" : 0,
            "byteLength" : 67020,
            "byteOffset" : 0
        },
        {
            "buffer" : 0,
            "byteLength" : 67020,
            "byteOffset" : 67020
        },
        {
            "buffer" : 0,
            "byteLength" : 44680,
            "byteOffset" : 134040
        },
        {
            "buffer" : 0,
            "byteLength" : 12288,
            "byteOffset" : 178720
        },
        {
            "buffer" : 0,
            "byteLength" : 73728,
            "byteOffset" : 191008
        },
        {
            "buffer" : 0,
            "byteLength" : 73728,
            "byteOffset" : 264736
        },
        {
            "buffer" : 0,
            "byteLength" : 49152,
            "byteOffset" : 338464
        },
        {
            "buffer" : 0,
            "byteLength" : 12288,
            "byteOffset" : 387616
        },
        {
            "buffer" : 0,
            "byteLength" : 54348,
            "byteOffset" : 399904
        },
        {
            "buffer" : 0,
            "byteLength" : 54348,
            "byteOffset" : 454252
        },
        {
            "buffer" : 0,
            "byteLength" : 36232,
            "byteOffset" : 508600
        },
        {
            "buffer" : 0,
            "byteLength" : 12288,
            "byteOffset" : 544832
        },
        {
            "buffer" : 0,
            "byteLength" : 62004,
            "byteOffset" : 557120
        },
        {
            "buffer" : 0,
            "byteLength" : 62004,
            "byteOffset" : 619124
        },
        {
            "buffer" : 0,
            "byteLength" : 41336,
            "byteOffset" : 681128
        },
        {
            "buffer" : 0,
            "byteLength" : 12288,
            "byteOffset" : 722464
        },
        {
            "buffer" : 0,
            "byteLength" : 60756,
            "byteOffset" : 734752
        },
        {
            "buffer" : 0,
            "byteLength" : 60756,
            "byteOffset" : 795508
        },
        {
            "buffer" : 0,
            "byteLength" : 40504,
            "byteOffset" : 856264
        },
        {
            "buffer" : 0,
            "byteLength" : 12288,
            "byteOffset" : 896768
        }
    ],
    "buffers" : [
        {
            "byteLength" : 909056,
            "uri" : "data:application/octet-stream;base64,"
        }
    ]
}
