{
    "asset" : {
        "generator" : "Khronos glTF Blender I/O v1.2.75",
        "version" : "2.0"
    },
    "scene" : 0,
    "scenes" : [
        {
            "name" : "Scene",
            "nodes" : [
                0
            ]
        }
    ],
    "nodes" : [
        {
            "mesh" : 0,
            "name" : "QUETZA"
        }
    ],
    "materials" : [
        {
            "doubleSided" : true,
            "name" : "verde",
            "pbrMetallicRoughness" : {}
        },
        {
            "doubleSided" : true,
            "name" : "rojo",
            "pbrMetallicRoughness" : {}
        },
        {
            "doubleSided" : true,
            "name" : "blanco",
            "pbrMetallicRoughness" : {}
        }
    ],
    "meshes" : [
        {
            "name" : "QUETZA.001",
            "primitives" : [
                {
                    "attributes" : {
                        "POSITION" : 0,
                        "NORMAL" : 1,
                        "TEXCOORD_0" : 2
                    },
                    "indices" : 3,
                    "material" : 0
                },
                {
                    "attributes" : {
                        "POSITION" : 4,
                        "NORMAL" : 5,
                        "TEXCOORD_0" : 6
                    },
                    "indices" : 7,
                    "material" : 1
                },
                {
                    "attributes" : {
                        "POSITION" : 8,
                        "NORMAL" : 9,
                        "TEXCOORD_0" : 10
                    },
                    "indices" : 11,
                    "material" : 2
                }
            ]
        }
    ],
    "accessors" : [
        {
            "bufferView" : 0,
            "componentType" : 5126,
            "count" : 3442,
            "max" : [
                0.1917431503534317,
                0.12323416769504547,
                0.17118148505687714
            ],
            "min" : [
                -0.1929599791765213,
                -0.14581280946731567,
                -0.2086317539215088
            ],
            "type" : "VEC3"
        },
        {
            "bufferView" : 1,
            "componentType" : 5126,
            "count" : 3442,
            "type" : "VEC3"
        },
        {
            "bufferView" : 2,
            "componentType" : 5126,
            "count" : 3442,
            "type" : "VEC2"
        },
        {
            "bufferView" : 3,
            "componentType" : 5123,
            "count" : 3732,
            "type" : "SCALAR"
        },
        {
            "bufferView" : 4,
            "componentType" : 5126,
            "count" : 2634,
            "max" : [
                0.17124460637569427,
                0.12323416769504547,
                0.16826550662517548
            ],
            "min" : [
                -0.17242664098739624,
                -0.1256982684135437,
                -0.19717656075954437
            ],
            "type" : "VEC3"
        },
        {
            "bufferView" : 5,
            "componentType" : 5126,
            "count" : 2634,
            "type" : "VEC3"
        },
        {
            "bufferView" : 6,
            "componentType" : 5126,
            "count" : 2634,
            "type" : "VEC2"
        },
        {
            "bufferView" : 7,
            "componentType" : 5123,
            "count" : 2892,
            "type" : "SCALAR"
        },
        {
            "bufferView" : 8,
            "componentType" : 5126,
            "count" : 169,
            "max" : [
                0.09406431764364243,
                0.05557790398597717,
                -0.015214955434203148
            ],
            "min" : [
                -0.09542640298604965,
                -0.07100740075111389,
                -0.08926017582416534
            ],
            "type" : "VEC3"
        },
        {
            "bufferView" : 9,
            "componentType" : 5126,
            "count" : 169,
            "type" : "VEC3"
        },
        {
            "bufferView" : 10,
            "componentType" : 5126,
            "count" : 169,
            "type" : "VEC2"
        },
        {
            "bufferView" : 11,
            "componentType" : 5123,
            "count" : 177,
            "type" : "SCALAR"
        }
    ],
    "bufferViews" : [
        {
            "buffer" : 0,
            "byteLength" : 41304,
            "byteOffset" : 0
        },
        {
            "buffer" : 0,
            "byteLength" : 41304,
            "byteOffset" : 41304
        },
        {
            "buffer" : 0,
            "byteLength" : 27536,
            "byteOffset" : 82608
        },
        {
            "buffer" : 0,
            "byteLength" : 7464,
            "byteOffset" : 110144
        },
        {
            "buffer" : 0,
            "byteLength" : 31608,
            "byteOffset" : 117608
        },
        {
            "buffer" : 0,
            "byteLength" : 31608,
            "byteOffset" : 149216
        },
        {
            "buffer" : 0,
            "byteLength" : 21072,
            "byteOffset" : 180824
        },
        {
            "buffer" : 0,
            "byteLength" : 5784,
            "byteOffset" : 201896
        },
        {
            "buffer" : 0,
            "byteLength" : 2028,
            "byteOffset" : 207680
        },
        {
            "buffer" : 0,
            "byteLength" : 2028,
            "byteOffset" : 209708
        },
        {
            "buffer" : 0,
            "byteLength" : 1352,
            "byteOffset" : 211736
        },
        {
            "buffer" : 0,
            "byteLength" : 354,
            "byteOffset" : 213088
        }
    ],
    "buffers" : [
        {
            "byteLength" : 213444,
            "uri" : "data:application/octet-stream;base64,"
        }
    ]
}
