{
    "asset" : {
        "generator" : "Khronos glTF Blender I/O v1.4.40",
        "version" : "2.0"
    },
    "scene" : 0,
    "scenes" : [
        {
            "extras" : {
                "home_builder" : {
                    "material_pointers" : [
                        {
                            "name" : "Cabinet Unfinished Surfaces",
                            "category" : "_Sample",
                            "item_name" : "Particle Board"
                        },
                        {
                            "name" : "Cabinet Unfinished Edges",
                            "category" : "_Sample",
                            "item_name" : "Particle Board"
                        },
                        {
                            "name" : "Cabinet Exposed Surfaces",
                            "category" : "_Sample",
                            "item_name" : "Dark Wood"
                        },
                        {
                            "name" : "Cabinet Exposed Edges",
                            "category" : "_Sample",
                            "item_name" : "Dark Wood"
                        },
                        {
                            "name" : "Cabinet Interior Surfaces",
                            "category" : "_Sample",
                            "item_name" : "Dark Wood"
                        },
                        {
                            "name" : "Cabinet Interior Edges",
                            "category" : "_Sample",
                            "item_name" : "Dark Wood"
                        },
                        {
                            "name" : "Cabinet Door Surfaces",
                            "category" : "_Sample",
                            "item_name" : "Dark Wood"
                        },
                        {
                            "name" : "Cabinet Door Edges",
                            "category" : "_Sample",
                            "item_name" : "Dark Wood"
                        },
                        {
                            "name" : "Cabinet Pull Finish",
                            "category" : "_Sample",
                            "item_name" : "Polished Chrome"
                        },
                        {
                            "name" : "Countertop Surface",
                            "category" : "_Sample",
                            "item_name" : "Midnight Granite"
                        },
                        {
                            "name" : "Glass",
                            "category" : "_Sample",
                            "item_name" : "Glass"
                        },
                        {
                            "name" : "Shelf Holes",
                            "category" : "_Sample",
                            "item_name" : "Machining"
                        },
                        {
                            "name" : "Walls",
                            "category" : "_Sample",
                            "item_name" : "Wall Paint"
                        },
                        {
                            "name" : "Lumber",
                            "category" : "_Sample",
                            "item_name" : "Plywood"
                        },
                        {
                            "name" : "Bricks",
                            "category" : "_Sample",
                            "item_name" : "Red Brick"
                        },
                        {
                            "name" : "Morter",
                            "category" : "_Sample",
                            "item_name" : "Concrete"
                        },
                        {
                            "name" : "Floor",
                            "category" : "_Sample",
                            "item_name" : "Provincial Oak Hardwood"
                        },
                        {
                            "name" : "Entry Door Frame",
                            "category" : "_Sample",
                            "item_name" : "Painted Wood White"
                        },
                        {
                            "name" : "Entry Door Panels",
                            "category" : "_Sample",
                            "item_name" : "Painted Wood White"
                        },
                        {
                            "name" : "Entry Door Handle",
                            "category" : "_Sample",
                            "item_name" : "Polished Chrome"
                        },
                        {
                            "name" : "Window Metal Frame",
                            "category" : "_Sample",
                            "item_name" : "Polished Chrome"
                        }
                    ],
                    "pull_pointers" : [
                        {
                            "name" : "Base Cabinet Pulls",
                            "category" : "_Sample",
                            "item_name" : "Pull 8in (203mm) Bar"
                        },
                        {
                            "name" : "Tall Cabinet Pulls",
                            "category" : "_Sample",
                            "item_name" : "Pull 8in (203mm) Bar"
                        },
                        {
                            "name" : "Upper Cabinet Pulls",
                            "category" : "_Sample",
                            "item_name" : "Pull 8in (203mm) Bar"
                        },
                        {
                            "name" : "Drawer Pulls",
                            "category" : "_Sample",
                            "item_name" : "Pull 8in (203mm) Bar"
                        }
                    ],
                    "cabinet_door_pointers" : [
                        {
                            "name" : "Base Cabinet Doors",
                            "category" : "_Sample",
                            "item_name" : "Slab"
                        },
                        {
                            "name" : "Tall Cabinet Doors",
                            "category" : "_Sample",
                            "item_name" : "Slab"
                        },
                        {
                            "name" : "Upper Cabinet Doors",
                            "category" : "_Sample",
                            "item_name" : "Slab"
                        },
                        {
                            "name" : "Drawer Fronts",
                            "category" : "_Sample",
                            "item_name" : "Slab"
                        }
                    ]
                }
            },
            "name" : "Scene",
            "nodes" : [
                1
            ]
        }
    ],
    "nodes" : [
        {
            "mesh" : 0,
            "name" : "Icosphere.002",
            "rotation" : [
                0.03434571251273155,
                0.06659398972988129,
                -0.0027541646268218756,
                0.9971850514411926
            ],
            "scale" : [
                6.642133712768555,
                2.438993215560913,
                9.39571762084961
            ],
            "translation" : [
                1.5095546245574951,
                17.072154998779297,
                2.8419342041015625
            ]
        },
        {
            "children" : [
                0
            ],
            "mesh" : 1,
            "name" : "Cube.002"
        }
    ],
    "materials" : [
        {
            "doubleSided" : true,
            "name" : "Foliage",
            "pbrMetallicRoughness" : {
                "baseColorFactor" : [
                    0.13552823662757874,
                    0.19017808139324188,
                    0.11317995190620422,
                    1
                ],
                "metallicFactor" : 0,
                "roughnessFactor" : 0.4000000059604645
            }
        },
        {
            "doubleSided" : true,
            "name" : "Bark",
            "pbrMetallicRoughness" : {
                "baseColorFactor" : [
                    0.26676133275032043,
                    0.09257034957408905,
                    0.0602947473526001,
                    1
                ],
                "metallicFactor" : 0,
                "roughnessFactor" : 0.4000000059604645
            }
        }
    ],
    "meshes" : [
        {
            "name" : "Icosphere.002",
            "primitives" : [
                {
                    "attributes" : {
                        "POSITION" : 0,
                        "NORMAL" : 1,
                        "TEXCOORD_0" : 2
                    },
                    "indices" : 3,
                    "material" : 0
                }
            ]
        },
        {
            "name" : "Cube.002",
            "primitives" : [
                {
                    "attributes" : {
                        "POSITION" : 4,
                        "NORMAL" : 5,
                        "TEXCOORD_0" : 6
                    },
                    "indices" : 7,
                    "material" : 1
                }
            ]
        }
    ],
    "accessors" : [
        {
            "bufferView" : 0,
            "componentType" : 5126,
            "count" : 240,
            "max" : [
                0.9400462508201599,
                1.4626870155334473,
                0.9750693440437317
            ],
            "min" : [
                -1.0354692935943604,
                -0.19167423248291016,
                -0.9772469997406006
            ],
            "type" : "VEC3"
        },
        {
            "bufferView" : 1,
            "componentType" : 5126,
            "count" : 240,
            "type" : "VEC3"
        },
        {
            "bufferView" : 2,
            "componentType" : 5126,
            "count" : 240,
            "type" : "VEC2"
        },
        {
            "bufferView" : 3,
            "componentType" : 5123,
            "count" : 240,
            "type" : "SCALAR"
        },
        {
            "bufferView" : 4,
            "componentType" : 5126,
            "count" : 558,
            "max" : [
                4.586106777191162,
                19.00566291809082,
                5.8227386474609375
            ],
            "min" : [
                -1.9680112600326538,
                -1,
                -3.5218427181243896
            ],
            "type" : "VEC3"
        },
        {
            "bufferView" : 5,
            "componentType" : 5126,
            "count" : 558,
            "type" : "VEC3"
        },
        {
            "bufferView" : 6,
            "componentType" : 5126,
            "count" : 558,
            "type" : "VEC2"
        },
        {
            "bufferView" : 7,
            "componentType" : 5123,
            "count" : 840,
            "type" : "SCALAR"
        }
    ],
    "bufferViews" : [
        {
            "buffer" : 0,
            "byteLength" : 2880,
            "byteOffset" : 0
        },
        {
            "buffer" : 0,
            "byteLength" : 2880,
            "byteOffset" : 2880
        },
        {
            "buffer" : 0,
            "byteLength" : 1920,
            "byteOffset" : 5760
        },
        {
            "buffer" : 0,
            "byteLength" : 480,
            "byteOffset" : 7680
        },
        {
            "buffer" : 0,
            "byteLength" : 6696,
            "byteOffset" : 8160
        },
        {
            "buffer" : 0,
            "byteLength" : 6696,
            "byteOffset" : 14856
        },
        {
            "buffer" : 0,
            "byteLength" : 4464,
            "byteOffset" : 21552
        },
        {
            "buffer" : 0,
            "byteLength" : 1680,
            "byteOffset" : 26016
        }
    ],
    "buffers" : [
        {
            "byteLength" : 27696,
            "uri" : "data:application/octet-stream;base64,"
        }
    ]
}
