{
    "asset" : {
        "generator" : "Khronos glTF Blender I/O v1.4.40",
        "version" : "2.0"
    },
    "scene" : 0,
    "scenes" : [
        {
            "extras" : {
                "home_builder" : {
                    "material_pointers" : [
                        {
                            "name" : "Cabinet Unfinished Surfaces",
                            "category" : "_Sample",
                            "item_name" : "Particle Board"
                        },
                        {
                            "name" : "Cabinet Unfinished Edges",
                            "category" : "_Sample",
                            "item_name" : "Particle Board"
                        },
                        {
                            "name" : "Cabinet Exposed Surfaces",
                            "category" : "_Sample",
                            "item_name" : "Dark Wood"
                        },
                        {
                            "name" : "Cabinet Exposed Edges",
                            "category" : "_Sample",
                            "item_name" : "Dark Wood"
                        },
                        {
                            "name" : "Cabinet Interior Surfaces",
                            "category" : "_Sample",
                            "item_name" : "Dark Wood"
                        },
                        {
                            "name" : "Cabinet Interior Edges",
                            "category" : "_Sample",
                            "item_name" : "Dark Wood"
                        },
                        {
                            "name" : "Cabinet Door Surfaces",
                            "category" : "_Sample",
                            "item_name" : "Dark Wood"
                        },
                        {
                            "name" : "Cabinet Door Edges",
                            "category" : "_Sample",
                            "item_name" : "Dark Wood"
                        },
                        {
                            "name" : "Cabinet Pull Finish",
                            "category" : "_Sample",
                            "item_name" : "Polished Chrome"
                        },
                        {
                            "name" : "Countertop Surface",
                            "category" : "_Sample",
                            "item_name" : "Midnight Granite"
                        },
                        {
                            "name" : "Glass",
                            "category" : "_Sample",
                            "item_name" : "Glass"
                        },
                        {
                            "name" : "Shelf Holes",
                            "category" : "_Sample",
                            "item_name" : "Machining"
                        },
                        {
                            "name" : "Walls",
                            "category" : "_Sample",
                            "item_name" : "Wall Paint"
                        },
                        {
                            "name" : "Lumber",
                            "category" : "_Sample",
                            "item_name" : "Plywood"
                        },
                        {
                            "name" : "Bricks",
                            "category" : "_Sample",
                            "item_name" : "Red Brick"
                        },
                        {
                            "name" : "Morter",
                            "category" : "_Sample",
                            "item_name" : "Concrete"
                        },
                        {
                            "name" : "Floor",
                            "category" : "_Sample",
                            "item_name" : "Provincial Oak Hardwood"
                        },
                        {
                            "name" : "Entry Door Frame",
                            "category" : "_Sample",
                            "item_name" : "Painted Wood White"
                        },
                        {
                            "name" : "Entry Door Panels",
                            "category" : "_Sample",
                            "item_name" : "Painted Wood White"
                        },
                        {
                            "name" : "Entry Door Handle",
                            "category" : "_Sample",
                            "item_name" : "Polished Chrome"
                        },
                        {
                            "name" : "Window Metal Frame",
                            "category" : "_Sample",
                            "item_name" : "Polished Chrome"
                        }
                    ],
                    "pull_pointers" : [
                        {
                            "name" : "Base Cabinet Pulls",
                            "category" : "_Sample",
                            "item_name" : "Pull 8in (203mm) Bar"
                        },
                        {
                            "name" : "Tall Cabinet Pulls",
                            "category" : "_Sample",
                            "item_name" : "Pull 8in (203mm) Bar"
                        },
                        {
                            "name" : "Upper Cabinet Pulls",
                            "category" : "_Sample",
                            "item_name" : "Pull 8in (203mm) Bar"
                        },
                        {
                            "name" : "Drawer Pulls",
                            "category" : "_Sample",
                            "item_name" : "Pull 8in (203mm) Bar"
                        }
                    ],
                    "cabinet_door_pointers" : [
                        {
                            "name" : "Base Cabinet Doors",
                            "category" : "_Sample",
                            "item_name" : "Slab"
                        },
                        {
                            "name" : "Tall Cabinet Doors",
                            "category" : "_Sample",
                            "item_name" : "Slab"
                        },
                        {
                            "name" : "Upper Cabinet Doors",
                            "category" : "_Sample",
                            "item_name" : "Slab"
                        },
                        {
                            "name" : "Drawer Fronts",
                            "category" : "_Sample",
                            "item_name" : "Slab"
                        }
                    ]
                }
            },
            "name" : "Scene",
            "nodes" : [
                1
            ]
        }
    ],
    "nodes" : [
        {
            "mesh" : 0,
            "name" : "Icosphere.001",
            "rotation" : [
                -0.03910307586193085,
                0,
                0,
                0.999235212802887
            ],
            "scale" : [
                6.354984283447266,
                3.522006034851074,
                10.275948524475098
            ],
            "translation" : [
                0,
                17.928415298461914,
                -5.595317840576172
            ]
        },
        {
            "children" : [
                0
            ],
            "mesh" : 1,
            "name" : "Cube.001"
        }
    ],
    "materials" : [
        {
            "doubleSided" : true,
            "name" : "Foliage",
            "pbrMetallicRoughness" : {
                "baseColorFactor" : [
                    0.13552823662757874,
                    0.19017808139324188,
                    0.11317995190620422,
                    1
                ],
                "metallicFactor" : 0,
                "roughnessFactor" : 0.4000000059604645
            }
        },
        {
            "doubleSided" : true,
            "name" : "Bark",
            "pbrMetallicRoughness" : {
                "baseColorFactor" : [
                    0.26676133275032043,
                    0.09257034957408905,
                    0.0602947473526001,
                    1
                ],
                "metallicFactor" : 0,
                "roughnessFactor" : 0.4000000059604645
            }
        }
    ],
    "meshes" : [
        {
            "name" : "Icosphere.001",
            "primitives" : [
                {
                    "attributes" : {
                        "POSITION" : 0,
                        "NORMAL" : 1,
                        "TEXCOORD_0" : 2
                    },
                    "indices" : 3,
                    "material" : 0
                }
            ]
        },
        {
            "name" : "Cube.001",
            "primitives" : [
                {
                    "attributes" : {
                        "POSITION" : 4,
                        "NORMAL" : 5,
                        "TEXCOORD_0" : 6
                    },
                    "indices" : 7,
                    "material" : 1
                }
            ]
        }
    ],
    "accessors" : [
        {
            "bufferView" : 0,
            "componentType" : 5126,
            "count" : 240,
            "max" : [
                0.9344339966773987,
                1.0295052528381348,
                0.9515711665153503
            ],
            "min" : [
                -0.9240665435791016,
                -0.2250867784023285,
                -0.945533812046051
            ],
            "type" : "VEC3"
        },
        {
            "bufferView" : 1,
            "componentType" : 5126,
            "count" : 240,
            "type" : "VEC3"
        },
        {
            "bufferView" : 2,
            "componentType" : 5126,
            "count" : 240,
            "type" : "VEC2"
        },
        {
            "bufferView" : 3,
            "componentType" : 5123,
            "count" : 240,
            "type" : "SCALAR"
        },
        {
            "bufferView" : 4,
            "componentType" : 5126,
            "count" : 528,
            "max" : [
                3.865704298019409,
                18.920124053955078,
                1.5598597526550293
            ],
            "min" : [
                -1.9837538003921509,
                -1,
                -10.553262710571289
            ],
            "type" : "VEC3"
        },
        {
            "bufferView" : 5,
            "componentType" : 5126,
            "count" : 528,
            "type" : "VEC3"
        },
        {
            "bufferView" : 6,
            "componentType" : 5126,
            "count" : 528,
            "type" : "VEC2"
        },
        {
            "bufferView" : 7,
            "componentType" : 5123,
            "count" : 786,
            "type" : "SCALAR"
        }
    ],
    "bufferViews" : [
        {
            "buffer" : 0,
            "byteLength" : 2880,
            "byteOffset" : 0
        },
        {
            "buffer" : 0,
            "byteLength" : 2880,
            "byteOffset" : 2880
        },
        {
            "buffer" : 0,
            "byteLength" : 1920,
            "byteOffset" : 5760
        },
        {
            "buffer" : 0,
            "byteLength" : 480,
            "byteOffset" : 7680
        },
        {
            "buffer" : 0,
            "byteLength" : 6336,
            "byteOffset" : 8160
        },
        {
            "buffer" : 0,
            "byteLength" : 6336,
            "byteOffset" : 14496
        },
        {
            "buffer" : 0,
            "byteLength" : 4224,
            "byteOffset" : 20832
        },
        {
            "buffer" : 0,
            "byteLength" : 1572,
            "byteOffset" : 25056
        }
    ],
    "buffers" : [
        {
            "byteLength" : 26628,
            "uri" : "data:application/octet-stream;base64,"
        }
    ]
}
