{
    "asset" : {
        "generator" : "Khronos glTF Blender I/O v1.4.40",
        "version" : "2.0"
    },
    "scene" : 0,
    "scenes" : [
        {
            "extras" : {
                "home_builder" : {
                    "material_pointers" : [
                        {
                            "name" : "Cabinet Unfinished Surfaces",
                            "category" : "_Sample",
                            "item_name" : "Particle Board"
                        },
                        {
                            "name" : "Cabinet Unfinished Edges",
                            "category" : "_Sample",
                            "item_name" : "Particle Board"
                        },
                        {
                            "name" : "Cabinet Exposed Surfaces",
                            "category" : "_Sample",
                            "item_name" : "Dark Wood"
                        },
                        {
                            "name" : "Cabinet Exposed Edges",
                            "category" : "_Sample",
                            "item_name" : "Dark Wood"
                        },
                        {
                            "name" : "Cabinet Interior Surfaces",
                            "category" : "_Sample",
                            "item_name" : "Dark Wood"
                        },
                        {
                            "name" : "Cabinet Interior Edges",
                            "category" : "_Sample",
                            "item_name" : "Dark Wood"
                        },
                        {
                            "name" : "Cabinet Door Surfaces",
                            "category" : "_Sample",
                            "item_name" : "Dark Wood"
                        },
                        {
                            "name" : "Cabinet Door Edges",
                            "category" : "_Sample",
                            "item_name" : "Dark Wood"
                        },
                        {
                            "name" : "Cabinet Pull Finish",
                            "category" : "_Sample",
                            "item_name" : "Polished Chrome"
                        },
                        {
                            "name" : "Countertop Surface",
                            "category" : "_Sample",
                            "item_name" : "Midnight Granite"
                        },
                        {
                            "name" : "Glass",
                            "category" : "_Sample",
                            "item_name" : "Glass"
                        },
                        {
                            "name" : "Shelf Holes",
                            "category" : "_Sample",
                            "item_name" : "Machining"
                        },
                        {
                            "name" : "Walls",
                            "category" : "_Sample",
                            "item_name" : "Wall Paint"
                        },
                        {
                            "name" : "Lumber",
                            "category" : "_Sample",
                            "item_name" : "Plywood"
                        },
                        {
                            "name" : "Bricks",
                            "category" : "_Sample",
                            "item_name" : "Red Brick"
                        },
                        {
                            "name" : "Morter",
                            "category" : "_Sample",
                            "item_name" : "Concrete"
                        },
                        {
                            "name" : "Floor",
                            "category" : "_Sample",
                            "item_name" : "Provincial Oak Hardwood"
                        },
                        {
                            "name" : "Entry Door Frame",
                            "category" : "_Sample",
                            "item_name" : "Painted Wood White"
                        },
                        {
                            "name" : "Entry Door Panels",
                            "category" : "_Sample",
                            "item_name" : "Painted Wood White"
                        },
                        {
                            "name" : "Entry Door Handle",
                            "category" : "_Sample",
                            "item_name" : "Polished Chrome"
                        },
                        {
                            "name" : "Window Metal Frame",
                            "category" : "_Sample",
                            "item_name" : "Polished Chrome"
                        }
                    ],
                    "pull_pointers" : [
                        {
                            "name" : "Base Cabinet Pulls",
                            "category" : "_Sample",
                            "item_name" : "Pull 8in (203mm) Bar"
                        },
                        {
                            "name" : "Tall Cabinet Pulls",
                            "category" : "_Sample",
                            "item_name" : "Pull 8in (203mm) Bar"
                        },
                        {
                            "name" : "Upper Cabinet Pulls",
                            "category" : "_Sample",
                            "item_name" : "Pull 8in (203mm) Bar"
                        },
                        {
                            "name" : "Drawer Pulls",
                            "category" : "_Sample",
                            "item_name" : "Pull 8in (203mm) Bar"
                        }
                    ],
                    "cabinet_door_pointers" : [
                        {
                            "name" : "Base Cabinet Doors",
                            "category" : "_Sample",
                            "item_name" : "Slab"
                        },
                        {
                            "name" : "Tall Cabinet Doors",
                            "category" : "_Sample",
                            "item_name" : "Slab"
                        },
                        {
                            "name" : "Upper Cabinet Doors",
                            "category" : "_Sample",
                            "item_name" : "Slab"
                        },
                        {
                            "name" : "Drawer Fronts",
                            "category" : "_Sample",
                            "item_name" : "Slab"
                        }
                    ]
                }
            },
            "name" : "Scene",
            "nodes" : [
                1
            ]
        }
    ],
    "nodes" : [
        {
            "mesh" : 0,
            "name" : "Icosphere",
            "rotation" : [
                0.015344644896686077,
                0,
                0,
                0.9998822808265686
            ],
            "scale" : [
                10.357110023498535,
                4.567437648773193,
                11.381274223327637
            ],
            "translation" : [
                0,
                17.17169761657715,
                -2.6447391510009766
            ]
        },
        {
            "children" : [
                0
            ],
            "mesh" : 1,
            "name" : "Cube"
        }
    ],
    "materials" : [
        {
            "doubleSided" : true,
            "name" : "Foliage",
            "pbrMetallicRoughness" : {
                "baseColorFactor" : [
                    0.13552823662757874,
                    0.19017808139324188,
                    0.11317995190620422,
                    1
                ],
                "metallicFactor" : 0,
                "roughnessFactor" : 0.4000000059604645
            }
        },
        {
            "doubleSided" : true,
            "name" : "Bark",
            "pbrMetallicRoughness" : {
                "baseColorFactor" : [
                    0.26676133275032043,
                    0.09257034957408905,
                    0.0602947473526001,
                    1
                ],
                "metallicFactor" : 0,
                "roughnessFactor" : 0.4000000059604645
            }
        }
    ],
    "meshes" : [
        {
            "name" : "Icosphere",
            "primitives" : [
                {
                    "attributes" : {
                        "POSITION" : 0,
                        "NORMAL" : 1,
                        "TEXCOORD_0" : 2
                    },
                    "indices" : 3,
                    "material" : 0
                }
            ]
        },
        {
            "name" : "Cube",
            "primitives" : [
                {
                    "attributes" : {
                        "POSITION" : 4,
                        "NORMAL" : 5,
                        "TEXCOORD_0" : 6
                    },
                    "indices" : 7,
                    "material" : 1
                }
            ]
        }
    ],
    "accessors" : [
        {
            "bufferView" : 0,
            "componentType" : 5126,
            "count" : 240,
            "max" : [
                0.9355162978172302,
                1.3192167282104492,
                1.1324926614761353
            ],
            "min" : [
                -0.9628141522407532,
                -0.21189022064208984,
                -0.9902594089508057
            ],
            "type" : "VEC3"
        },
        {
            "bufferView" : 1,
            "componentType" : 5126,
            "count" : 240,
            "type" : "VEC3"
        },
        {
            "bufferView" : 2,
            "componentType" : 5126,
            "count" : 240,
            "type" : "VEC2"
        },
        {
            "bufferView" : 3,
            "componentType" : 5123,
            "count" : 240,
            "type" : "SCALAR"
        },
        {
            "bufferView" : 4,
            "componentType" : 5126,
            "count" : 698,
            "max" : [
                5.869216442108154,
                18.481950759887695,
                5.6970720291137695
            ],
            "min" : [
                -3.3347206115722656,
                -1.094951868057251,
                -9.073017120361328
            ],
            "type" : "VEC3"
        },
        {
            "bufferView" : 5,
            "componentType" : 5126,
            "count" : 698,
            "type" : "VEC3"
        },
        {
            "bufferView" : 6,
            "componentType" : 5126,
            "count" : 698,
            "type" : "VEC2"
        },
        {
            "bufferView" : 7,
            "componentType" : 5123,
            "count" : 1074,
            "type" : "SCALAR"
        }
    ],
    "bufferViews" : [
        {
            "buffer" : 0,
            "byteLength" : 2880,
            "byteOffset" : 0
        },
        {
            "buffer" : 0,
            "byteLength" : 2880,
            "byteOffset" : 2880
        },
        {
            "buffer" : 0,
            "byteLength" : 1920,
            "byteOffset" : 5760
        },
        {
            "buffer" : 0,
            "byteLength" : 480,
            "byteOffset" : 7680
        },
        {
            "buffer" : 0,
            "byteLength" : 8376,
            "byteOffset" : 8160
        },
        {
            "buffer" : 0,
            "byteLength" : 8376,
            "byteOffset" : 16536
        },
        {
            "buffer" : 0,
            "byteLength" : 5584,
            "byteOffset" : 24912
        },
        {
            "buffer" : 0,
            "byteLength" : 2148,
            "byteOffset" : 30496
        }
    ],
    "buffers" : [
        {
            "byteLength" : 32644,
            "uri" : "data:application/octet-stream;base64,"
        }
    ]
}
